<svg width="121" height="22" viewBox="0 0 121 22" fill="none" xmlns="http://www.w3.org/2000/svg">
<path d="M28.66 6.78H24.42V4.28H35.8V6.78H31.56V18H28.66V6.78ZM39.3822 18.24C38.5689 18.24 37.8222 18.0267 37.1422 17.6C36.4622 17.1733 36.1222 16.4 36.1222 15.28C36.1222 13.9333 36.6755 12.98 37.7822 12.42C38.8889 11.8467 40.4555 11.56 42.4822 11.56V10.82C42.4822 10.3533 42.3755 9.99333 42.1622 9.74C41.9622 9.48667 41.5755 9.36 41.0022 9.36C40.3889 9.36 39.9489 9.45333 39.6822 9.64C39.4289 9.82667 39.3022 10.0467 39.3022 10.3V10.6H36.6622C36.6489 10.52 36.6422 10.3733 36.6422 10.16C36.6422 9.28 37.0289 8.57333 37.8022 8.04C38.5889 7.50667 39.6289 7.24 40.9222 7.24C42.3622 7.24 43.4355 7.53333 44.1422 8.12C44.8622 8.70667 45.2222 9.55333 45.2222 10.66V15.3C45.2222 15.54 45.2889 15.72 45.4222 15.84C45.5555 15.9467 45.7222 16 45.9222 16H46.4822V17.92C46.0555 18.1333 45.5289 18.24 44.9022 18.24C44.3555 18.24 43.8955 18.12 43.5222 17.88C43.1622 17.64 42.9155 17.3 42.7822 16.86H42.6622C42.2755 17.3133 41.8289 17.66 41.3222 17.9C40.8289 18.1267 40.1822 18.24 39.3822 18.24ZM40.2422 16.08C41.0155 16.08 41.5822 15.8667 41.9422 15.44C42.3022 15 42.4822 14.42 42.4822 13.7V13.38C40.0955 13.38 38.9022 13.9133 38.9022 14.98C38.9022 15.3133 39.0089 15.58 39.2222 15.78C39.4489 15.98 39.7889 16.08 40.2422 16.08ZM53.0755 18.24C51.6088 18.24 50.4555 17.94 49.6155 17.34C48.7888 16.7267 48.3755 15.9133 48.3755 14.9L48.3955 14.66H51.0555V14.8C51.0688 15.2667 51.2755 15.6067 51.6755 15.82C52.0888 16.02 52.5888 16.12 53.1755 16.12C53.7221 16.12 54.1888 16.0467 54.5755 15.9C54.9621 15.7533 55.1555 15.5133 55.1555 15.18C55.1555 14.8067 54.9555 14.5267 54.5555 14.34C54.1688 14.1533 53.5555 13.9667 52.7155 13.78C51.8488 13.58 51.1421 13.38 50.5955 13.18C50.0488 12.9667 49.5755 12.64 49.1755 12.2C48.7755 11.76 48.5755 11.1733 48.5755 10.44C48.5755 9.41333 49.0021 8.62667 49.8555 8.08C50.7221 7.52 51.8355 7.24 53.1955 7.24C54.4621 7.24 55.5088 7.5 56.3355 8.02C57.1621 8.52667 57.5755 9.22 57.5755 10.1L57.5555 10.56H54.8955V10.44C54.8955 10.0933 54.7288 9.82667 54.3955 9.64C54.0755 9.45333 53.6421 9.36 53.0955 9.36C52.5488 9.36 52.1155 9.43333 51.7955 9.58C51.4755 9.72667 51.3155 9.93333 51.3155 10.2C51.3155 10.5333 51.4955 10.78 51.8555 10.94C52.2288 11.1 52.8221 11.26 53.6355 11.42C54.5288 11.62 55.2555 11.82 55.8155 12.02C56.3755 12.22 56.8621 12.5467 57.2755 13C57.6888 13.4533 57.8955 14.0667 57.8955 14.84C57.8955 17.1067 56.2888 18.24 53.0755 18.24ZM60.7888 3.54H63.5288V11.66L67.0088 7.48H70.1688L66.6888 11.52L70.3688 18H67.2288L64.9288 13.54L63.5288 14.9V18H60.7888V3.54Z" fill="#CC3B36"/>
<path d="M72.622 4.28H77.142L79.062 11.84C79.2087 12.4133 79.422 13.4467 79.702 14.94H79.802C80.042 13.38 80.2287 12.3467 80.362 11.84L82.282 4.28H86.602V18H83.702V9.26C83.702 8.87333 83.742 8.14 83.822 7.06H83.722L83.302 8.68L80.942 18H78.182L75.822 8.68L75.402 7.06H75.302C75.382 8.18 75.422 8.91333 75.422 9.26V18H72.622V4.28ZM90.1422 3.54H92.8822V6.14H90.1422V3.54ZM90.1422 7.48H92.8822V18H90.1422V7.48ZM96.5286 7.48H98.8686L99.0686 8.86H99.2086C100.062 7.78 101.155 7.24 102.489 7.24C103.569 7.24 104.415 7.53333 105.029 8.12C105.655 8.70667 105.969 9.64667 105.969 10.94V18H103.229V11.52C103.229 10.8667 103.075 10.3933 102.769 10.1C102.462 9.80667 102.009 9.66 101.409 9.66C100.795 9.66 100.282 9.88 99.8686 10.32C99.4686 10.7467 99.2686 11.28 99.2686 11.92V18H96.5286V7.48ZM113.075 18.24C111.742 18.24 110.708 17.7867 109.975 16.88C109.242 15.96 108.875 14.5733 108.875 12.72C108.875 10.9067 109.242 9.54 109.975 8.62C110.722 7.7 111.708 7.24 112.935 7.24C113.642 7.24 114.262 7.36667 114.795 7.62C115.342 7.87333 115.768 8.23333 116.075 8.7H116.195V3.54H118.935V18H116.595L116.415 16.62H116.275C115.942 17.1533 115.495 17.56 114.935 17.84C114.375 18.1067 113.755 18.24 113.075 18.24ZM113.955 15.86C115.448 15.86 116.195 14.88 116.195 12.92V12.6C116.195 10.6133 115.448 9.62 113.955 9.62C113.142 9.62 112.562 9.86667 112.215 10.36C111.868 10.84 111.695 11.5733 111.695 12.56V12.92C111.695 13.9067 111.868 14.6467 112.215 15.14C112.562 15.62 113.142 15.86 113.955 15.86Z" fill="#220100"/>
<path d="M9.2282 8.07118C9.2282 8.07118 9.96682 3.144 5.28646 1.78896C5.28707 1.78896 4.54784 6.59272 9.2282 8.07118Z" fill="#008218"/>
<path d="M9.01789 8.07118C9.01789 8.07118 8.27897 3.144 12.9596 1.78896C12.959 1.78896 13.6986 6.59272 9.01789 8.07118Z" fill="#008218"/>
<path d="M9.1733 7.41422C9.1733 7.41422 6.00248 3.57182 9.31652 0C9.31652 0 12.4243 3.73697 9.1733 7.41422Z" fill="#008218"/>
<path d="M18.0483 11.7688C18.0483 16.3148 14.0079 20 9.02401 20C4.03955 20 0 16.3148 0 11.7688C0 8.13639 2.1799 5.22944 5.86142 4.55603C7.63544 4.23182 9.02401 5.62008 9.02401 5.62008C9.02401 5.62008 10.3029 4.29368 11.9986 4.52922C15.5689 5.02498 18.0483 7.79084 18.0483 11.7688Z" fill="#FF4A44"/>
</svg>
