<?xml version="1.0" encoding="iso-8859-1"?>
<!-- Generator: Adobe Illustrator 19.0.0, SVG Export Plug-In . SVG Version: 6.00 Build 0)  -->
<svg version="1.1" id="Layer_1" xmlns="http://www.w3.org/2000/svg" xmlns:xlink="http://www.w3.org/1999/xlink" x="0px" y="0px"
	 viewBox="0 0 512 512" style="enable-background:new 0 0 512 512;" xml:space="preserve">
<g>
	<g>
		<path d="M437.019,74.981C388.667,26.629,324.38,0,256,0S123.332,26.629,74.981,74.981C26.629,123.332,0,187.62,0,256
			c0,64.306,23.938,125.787,67.407,173.116l11.2-10.287C37.724,374.313,15.208,316.486,15.208,256
			c0-64.318,25.046-124.786,70.527-170.266C131.214,40.254,191.682,15.208,256,15.208s124.786,25.046,170.266,70.526
			S496.792,191.682,496.792,256s-25.046,124.786-70.527,170.266c-45.479,45.48-105.947,70.526-170.265,70.526
			c-60.852,0-118.94-22.755-163.56-64.074l-10.332,11.159C129.547,487.806,191.305,512,256,512
			c68.38,0,132.667-26.629,181.019-74.981S512,324.38,512,256S485.371,123.332,437.019,74.981z"/>
	</g>
</g>
<g>
	<g>
		<path d="M239.109,32.507c-15.047,1.293-38.485,4.943-64.695,14.997C131.26,64.058,96.391,91.713,70.777,129.701l-4.557,6.759
			l156.467,90.335l4.104-3.659c4.503-4.016,9.669-7.006,15.356-8.884l5.217-1.725V31.799L239.109,32.507z M232.156,201.816
			c-3.944,1.732-7.669,3.888-11.148,6.45L88.08,131.52c23.337-31.923,54.178-55.392,91.783-69.817
			c20.17-7.737,38.567-11.424,52.293-13.163V201.816z"/>
	</g>
</g>
<g>
	<g>
		<path d="M212.024,256.001c0-2.982,0.302-5.976,0.899-8.899l1.095-5.367L57.537,151.39l-3.509,7.516
			c-5.512,11.807-13.069,30.834-17.759,54.421c-9.717,48.85-3.748,95.931,17.74,139.933l3.576,7.324l156.434-90.318l-1.095-5.366
			C212.326,261.977,212.024,258.983,212.024,256.001z M197.166,262.435l-132.933,76.75c-17.165-38.811-21.557-80.111-13.047-122.893
			c3.497-17.58,8.687-32.448,13.26-43.354l132.721,76.626c-0.232,2.138-0.349,4.29-0.349,6.436S196.933,260.297,197.166,262.435z"/>
	</g>
</g>
<g>
	<g>
		<path d="M247.363,299.471l-5.217-1.725c-5.686-1.879-10.851-4.869-15.356-8.884l-4.102-3.658L66.162,375.575l4.762,6.798
			c18.887,26.961,73.095,90.399,168.297,97.172l8.143,0.58L247.363,299.471z M88.292,380.357l132.715-76.623
			c3.479,2.562,7.206,4.717,11.147,6.449l0.001,153.453C155.466,455.19,108.712,407.102,88.292,380.357z"/>
	</g>
</g>
<g>
	<g>
		<path d="M289.313,285.207l-4.102,3.657c-4.506,4.016-9.672,7.006-15.357,8.884l-5.217,1.725l-0.001,180.729l8.255-0.709
			c15.047-1.292,38.484-4.943,64.695-14.996c43.153-16.554,78.022-44.208,103.637-82.197l4.557-6.759L289.313,285.207z
			 M332.138,450.298c-20.171,7.737-38.568,11.424-52.294,13.163l-0.001-153.277c3.942-1.731,7.668-3.886,11.147-6.448
			l132.928,76.744C400.583,412.404,369.74,435.873,332.138,450.298z"/>
	</g>
</g>
<g>
	<g>
		<path d="M457.992,158.74l-3.576-7.324l-156.432,90.318l1.094,5.365c0.596,2.925,0.898,5.919,0.898,8.899
			c0,2.982-0.302,5.977-0.899,8.9l-1.096,5.368l156.484,90.345l3.509-7.517c5.513-11.807,13.069-30.836,17.759-54.421
			C485.449,249.823,479.479,202.742,457.992,158.74z M460.816,295.708c-3.496,17.581-8.686,32.447-13.259,43.354l-132.723-76.626
			c0.231-2.138,0.349-4.29,0.349-6.436c0-2.144-0.117-4.295-0.349-6.433l132.933-76.751
			C464.934,211.625,469.326,252.926,460.816,295.708z"/>
	</g>
</g>
<g>
	<g>
		<path d="M441.076,129.628c-18.887-26.961-73.095-90.399-168.297-97.172l-8.143-0.579l0.001,180.651l5.217,1.725
			c5.685,1.879,10.851,4.869,15.356,8.885l4.102,3.657l156.526-90.37L441.076,129.628z M290.993,208.266
			c-3.48-2.563-7.206-4.719-11.148-6.45l-0.001-153.452c76.69,8.446,123.444,56.535,143.863,83.28L290.993,208.266z"/>
	</g>
</g>
<g>
	<g>
		<path d="M304.556,68.302l-3.8,14.725c38.339,9.891,65.854,31.59,82.186,48.051l10.796-10.71
			C368.391,94.819,337.552,76.815,304.556,68.302z"/>
	</g>
</g>
<g>
	<g>
		<rect x="200.096" y="160.321" transform="matrix(0.866 -0.5 0.5 0.866 -58.3354 126.9399)" width="15.208" height="24.004"/>
	</g>
</g>
<g>
	<g>
		<rect x="296.727" y="327.67" transform="matrix(0.866 -0.5 0.5 0.866 -129.0657 197.6786)" width="15.208" height="24.005"/>
	</g>
</g>
<g>
	<g>
		<rect x="147.375" y="248.396" width="24.004" height="15.208"/>
	</g>
</g>
<g>
	<g>
		<rect x="340.627" y="248.396" width="24.003" height="15.208"/>
	</g>
</g>
<g>
	<g>
		<rect x="195.689" y="332.068" transform="matrix(0.5 -0.866 0.866 0.5 -190.3193 349.6968)" width="24.004" height="15.208"/>
	</g>
</g>
<g>
	<g>
		<rect x="292.323" y="164.725" transform="matrix(0.5 -0.866 0.866 0.5 2.9185 349.7135)" width="24.003" height="15.208"/>
	</g>
</g>
<g>
</g>
<g>
</g>
<g>
</g>
<g>
</g>
<g>
</g>
<g>
</g>
<g>
</g>
<g>
</g>
<g>
</g>
<g>
</g>
<g>
</g>
<g>
</g>
<g>
</g>
<g>
</g>
<g>
</g>
</svg>
